<svg width="19" height="20" viewBox="0 0 19 20" fill="none" xmlns="http://www.w3.org/2000/svg">
    <path
        d="M10.5075 7.19158L7.45811 10.2553C7.3734 10.3404 7.28164 10.4006 7.18282 10.4358C7.08399 10.4715 6.97811 10.4894 6.86517 10.4894C6.75223 10.4894 6.64635 10.4715 6.54753 10.4358C6.44871 10.4006 6.35694 10.3404 6.27224 10.2553L3.22286 7.19158C3.05345 7.02137 2.96875 6.8228 2.96875 6.59585C2.96875 6.36891 3.05345 6.17033 3.22286 6.00012C3.39227 5.82992 3.59331 5.74481 3.82596 5.74481C4.05918 5.74481 4.2605 5.82992 4.42991 6.00012L6.01812 7.59583V2.34064C6.01812 2.09952 6.09916 1.89754 6.26123 1.7347C6.42386 1.5713 6.62518 1.4896 6.86517 1.4896C7.10517 1.4896 7.3062 1.5713 7.46827 1.7347C7.6309 1.89754 7.71222 2.09952 7.71222 2.34064V7.59583L9.30044 6.00012C9.46985 5.82992 9.66749 5.74481 9.89337 5.74481C10.1193 5.74481 10.3169 5.82992 10.4863 6.00012C10.6557 6.17033 10.7475 6.36522 10.7616 6.58479C10.7757 6.80493 10.691 7.00719 10.5075 7.19158ZM15.5686 13.9999C15.738 13.8297 15.8261 13.6311 15.8329 13.4042C15.8402 13.1772 15.7592 12.9787 15.5898 12.8085L12.5404 9.74471C12.4557 9.6596 12.3639 9.59918 12.2651 9.56344C12.1663 9.52826 12.0604 9.51067 11.9475 9.51067C11.8345 9.51067 11.7286 9.52826 11.6298 9.56344C11.531 9.59918 11.4392 9.6596 11.3545 9.74471L8.30516 12.8085C8.13575 12.9787 8.05104 13.1772 8.05104 13.4042C8.05104 13.6311 8.13575 13.8297 8.30516 13.9999C8.47457 14.1701 8.6756 14.2552 8.90825 14.2552C9.14147 14.2552 9.34279 14.1701 9.5122 13.9999L11.1004 12.4042V17.6594C11.1004 17.9005 11.1814 18.1025 11.3435 18.2653C11.5062 18.4287 11.7075 18.5104 11.9475 18.5104C12.1875 18.5104 12.3885 18.4287 12.5506 18.2653C12.7132 18.1025 12.7945 17.9005 12.7945 17.6594V12.4042L14.3827 13.9999C14.5521 14.1701 14.7498 14.2552 14.9757 14.2552C15.2015 14.2552 15.3992 14.1701 15.5686 13.9999Z"
        fill="#00ADB5" />
</svg>
    